<?xml version="1.0" encoding="UTF-8" standalone="no"?>
<!-- Created with Inkscape (http://www.inkscape.org/) -->

<svg
   xmlns:dc="http://purl.org/dc/elements/1.1/"
   xmlns:cc="http://creativecommons.org/ns#"
   xmlns:rdf="http://www.w3.org/1999/02/22-rdf-syntax-ns#"
   xmlns:svg="http://www.w3.org/2000/svg"
   xmlns="http://www.w3.org/2000/svg"
   xmlns:sodipodi="http://sodipodi.sourceforge.net/DTD/sodipodi-0.dtd"
   xmlns:inkscape="http://www.inkscape.org/namespaces/inkscape"
   width="210mm"
   height="297mm"
   viewBox="0 0 210 297"
   version="1.1"
   id="svg8"
   inkscape:version="0.92.5 (2060ec1f9f, 2020-04-08)"
   sodipodi:docname="PT_Logo.svg">
  <defs
     id="defs2" />
  <sodipodi:namedview
     id="base"
     pagecolor="#ffffff"
     bordercolor="#666666"
     borderopacity="1.0"
     inkscape:pageopacity="0.0"
     inkscape:pageshadow="2"
     inkscape:zoom="0.98994949"
     inkscape:cx="355.71415"
     inkscape:cy="750.06899"
     inkscape:document-units="mm"
     inkscape:current-layer="layer1"
     showgrid="false"
     inkscape:snap-bbox="false"
     inkscape:snap-center="false"
     inkscape:snap-grids="true"
     inkscape:snap-page="false"
     inkscape:window-width="1848"
     inkscape:window-height="1016"
     inkscape:window-x="72"
     inkscape:window-y="27"
     inkscape:window-maximized="1" />
  <metadata
     id="metadata5">
    <rdf:RDF>
      <cc:Work
         rdf:about="">
        <dc:format>image/svg+xml</dc:format>
        <dc:type
           rdf:resource="http://purl.org/dc/dcmitype/StillImage" />
        <dc:title />
      </cc:Work>
    </rdf:RDF>
  </metadata>
  <g
     inkscape:label="Layer 1"
     inkscape:groupmode="layer"
     id="layer1">
    <path
       sodipodi:type="star"
       style="fill:#87decd;fill-opacity:1;stroke-width:0.26458332"
       id="path203"
       sodipodi:sides="3"
       sodipodi:cx="99.424263"
       sodipodi:cy="55.121075"
       sodipodi:r1="74.057289"
       sodipodi:r2="46.725605"
       sodipodi:arg1="1.5960617"
       sodipodi:arg2="2.7041055"
       inkscape:flatsided="false"
       inkscape:rounded="0.14"
       inkscape:randomized="3.469447e-17"
       d="M 97.553377,129.15473 C 88.11572,128.33959 61.627191,83.237647 57.099316,74.91706 52.947508,67.287546 31.270482,23.604712 36.244681,16.484013 41.669437,8.7183301 93.973133,8.3295637 103.44291,8.5686028 c 8.68326,0.2191855 57.35221,3.2877482 61.03182,11.1558802 4.0129,8.580818 -21.80226,54.07153 -26.74417,62.153078 -4.53145,7.410329 -31.52338,48.024599 -40.177183,47.277169 z"
       inkscape:transform-center-x="-0.90105804"
       inkscape:transform-center-y="29.951457"
       transform="matrix(1.5909244,-0.0287195,0.015251,1.6335869,-54.477214,-9.8418327)" />
    <path
       inkscape:connector-curvature="0"
       style="fill:#000000;fill-opacity:1;stroke:none;stroke-width:0.12489215;stroke-miterlimit:4;stroke-dasharray:none;stroke-opacity:1"
       d="m 96.141874,16.897663 c -4.192596,10e-4 -7.828236,0.741593 -10.110486,1.703771 1.47069,1.37287 3.95367,2.62663 2.68872,4.321702 -11.60147,-5.714269 -17.88682,-2.976219 -23.71535,0.488341 1.86468,0.0636 3.26454,0.0042 6.34277,0.389642 -4.14889,0.97146 -7.89867,2.365959 -10.42624,5.056021 3.08345,-0.36318 4.90887,-0.250611 5.7242,1.44694 -8.34891,3.561321 -11.00691,8.087527 -11.92899,18.991606 5.26218,-2.874592 8.78247,-4.220207 12.41836,-4.336687 -13.02677,11.315377 -5.26211,27.421957 -2.83238,27.853597 1.25336,-0.14533 -0.0334,5.693077 1.08314,6.576341 l 0.8077,13.926282 -0.43615,0.0419 0.19586,2.284098 a 11.083108,6.3036066 85.28283 0 0 -1.02733,-0.0584 11.083108,6.3036066 85.28283 0 0 -5.30562,11.658733 11.083108,6.3036066 85.28283 0 0 7.24194,10.42209 11.083108,6.3036066 85.28283 0 0 0.91002,-0.22014 l 0.11988,1.71876 0.87024,13.8095 0.093,0.0517 c -0.16133,3.23699 0.70567,6.47352 3.45353,9.71052 6.53031,6.94265 12.51978,9.87165 18.7601,14.66267 0.13693,2.97793 26.586212,4.14057 26.917192,0.21859 -1.32486,0.9864 21.56624,-15.91085 22.75158,-24.22953 l 0.21653,-2.93729 -5.11907,-1.46296 -5.26221,-1.50481 3.01842,-3.07527 -4.14962,-4.41368 -4.25814,-4.52943 5.85081,-1.81126 5.33869,-1.65262 0.43098,-2.05465 2.96106,-14.115936 -4.25607,-3.009642 -9.25938,-6.547924 2.04845,-0.943604 -5.55056,-6.031684 -5.71542,-6.210994 6.44974,-4.30568 6.05441,-4.04161 -4.84105,-3.45198 1.88154,-1.89085 -8.43463,-7.812954 -8.9178,-8.26048 9.66297,-6.253882 5.16558,-3.343463 c -0.21003,-0.201731 -0.41543,-0.395813 -0.62992,-0.604162 C 117.28542,20.467046 105.36562,16.894483 96.141874,16.897663 Z m 32.063136,20.630783 -0.40049,7.797972 -0.69453,13.531478 9.71568,-9.763748 3.64888,-3.666961 c -0.003,0.0016 -0.005,0.0031 -0.008,0.0047 -3.97719,-1.641439 -7.61035,-3.879946 -12.26123,-7.903436 z m 1.69085,27.46447 -0.69815,9.99629 -0.71623,10.253128 8.06824,-3.717079 10.0428,-4.626093 -9.46764,-6.751006 z m 16.92765,12.071096 -0.17002,1.846928 c 0.12568,-0.516257 0.18207,-1.142181 0.21756,-1.813338 z m -12.84624,46.352218 -0.20154,0.80099 0.0424,-0.0429 z"
       id="path915" />
    <path
       sodipodi:type="star"
       style="fill:#000000;fill-opacity:1;stroke-width:0.26458332"
       id="path507-1-6"
       sodipodi:sides="3"
       sodipodi:cx="143.34792"
       sodipodi:cy="70.877625"
       sodipodi:r1="13.094843"
       sodipodi:r2="6.5474215"
       sodipodi:arg1="1.1391013"
       sodipodi:arg2="2.1862989"
       inkscape:flatsided="false"
       inkscape:rounded="0"
       inkscape:randomized="0"
       d="m 148.82694,82.771118 -9.2593,-6.547633 -9.2593,-6.547632 10.30006,-4.744975 10.30007,-4.744975 -1.04076,11.292608 z"
       inkscape:transform-center-x="2.7430342"
       inkscape:transform-center-y="0.17128155"
       transform="matrix(1.0471211,-0.11585985,0.22734861,1.5421728,-22.945452,-31.896376)" />
    <path
       sodipodi:type="star"
       style="fill:#000000;fill-opacity:1;stroke-width:0.26458332"
       id="path507-1-5"
       sodipodi:sides="3"
       sodipodi:cx="150.00502"
       sodipodi:cy="95.41243"
       sodipodi:r1="13.094843"
       sodipodi:r2="6.5474215"
       sodipodi:arg1="1.1391013"
       sodipodi:arg2="2.1862989"
       inkscape:flatsided="false"
       inkscape:rounded="0"
       inkscape:randomized="0"
       d="m 155.48405,107.30592 -9.25931,-6.54763 -9.2593,-6.547632 10.30007,-4.744975 10.30007,-4.744975 -1.04077,11.292608 z"
       inkscape:transform-center-x="1.9933985"
       inkscape:transform-center-y="0.56636975"
       transform="matrix(0.7276469,0,0,0.94255995,11.965428,-45.500902)" />
    <path
       sodipodi:type="star"
       style="fill:#000000;fill-opacity:1;stroke-width:0.26458332"
       id="path507-1-56"
       sodipodi:sides="3"
       sodipodi:cx="145.19417"
       sodipodi:cy="123.20846"
       sodipodi:r1="13.094843"
       sodipodi:r2="6.5474215"
       sodipodi:arg1="1.1391013"
       sodipodi:arg2="2.1862989"
       inkscape:flatsided="false"
       inkscape:rounded="0"
       inkscape:randomized="0"
       d="m 150.67319,135.10195 -9.2593,-6.54763 -9.2593,-6.54763 10.30007,-4.74498 10.30006,-4.74497 -1.04076,11.2926 z"
       inkscape:transform-center-x="3.0885536"
       inkscape:transform-center-y="0.54945046"
       transform="matrix(1.127409,0,0,0.91440204,-21.563112,-24.906775)" />
    <path
       sodipodi:type="star"
       style="fill:#000000;fill-opacity:1;stroke-width:0.26458332"
       id="path507-1-2"
       sodipodi:sides="3"
       sodipodi:cx="131.02888"
       sodipodi:cy="118.3976"
       sodipodi:r1="13.094843"
       sodipodi:r2="6.5474215"
       sodipodi:arg1="1.1391013"
       sodipodi:arg2="2.1862989"
       inkscape:flatsided="false"
       inkscape:rounded="0"
       inkscape:randomized="0"
       d="m 136.50791,130.29109 -9.2593,-6.54763 -9.25931,-6.54763 10.30007,-4.74498 10.30007,-4.74497 -1.04076,11.2926 z"
       inkscape:transform-center-x="-5.6435438"
       inkscape:transform-center-y="12.473323"
       transform="matrix(0.53167198,-1.2386084,0.479147,0.33116607,15.660718,231.01302)" />
    <path
       sodipodi:type="star"
       style="fill:#000000;fill-opacity:1;stroke-width:0.26458332"
       id="path507-1-2-1"
       sodipodi:sides="3"
       sodipodi:cx="131.02888"
       sodipodi:cy="118.3976"
       sodipodi:r1="13.094843"
       sodipodi:r2="6.5474215"
       sodipodi:arg1="1.1391013"
       sodipodi:arg2="2.1862989"
       inkscape:flatsided="false"
       inkscape:rounded="0"
       inkscape:randomized="0"
       d="m 136.50791,130.29109 -9.2593,-6.54763 -9.25931,-6.54763 10.30007,-4.74498 10.30007,-4.74497 -1.04076,11.2926 z"
       inkscape:transform-center-x="5.5061574"
       inkscape:transform-center-y="-7.5282985"
       transform="matrix(-0.51435976,0.98199287,-0.46573556,-0.02367701,262.93057,-3.624503)" />
    <path
       sodipodi:type="star"
       style="fill:#000000;fill-opacity:1;stroke-width:0.26458332"
       id="path509-6-7"
       sodipodi:sides="3"
       sodipodi:cx="136.30746"
       sodipodi:cy="139.8455"
       sodipodi:r1="12.209427"
       sodipodi:r2="6.1047134"
       sodipodi:arg1="0.92038682"
       sodipodi:arg2="1.9675844"
       inkscape:flatsided="false"
       inkscape:rounded="0"
       inkscape:randomized="0"
       d="m 143.70042,149.56221 -9.75217,-4.08629 -9.75217,-4.08628 8.41491,-6.40249 8.4149,-6.40249 1.33727,10.48877 z"
       inkscape:transform-center-x="1.5227017"
       inkscape:transform-center-y="0.46555702"
       transform="matrix(0.59627267,0.16786851,-0.14025488,0.7136679,62.807938,-48.669962)" />
    <path
       sodipodi:type="star"
       style="fill:#000000;fill-opacity:1;stroke-width:0.26458332"
       id="path509-6-3"
       sodipodi:sides="3"
       sodipodi:cx="136.30746"
       sodipodi:cy="139.8455"
       sodipodi:r1="12.209427"
       sodipodi:r2="6.1047134"
       sodipodi:arg1="0.92038682"
       sodipodi:arg2="1.9675844"
       inkscape:flatsided="false"
       inkscape:rounded="0"
       inkscape:randomized="0"
       d="m 143.70042,149.56221 -9.75217,-4.08629 -9.75217,-4.08628 8.41491,-6.40249 8.4149,-6.40249 1.33727,10.48877 z"
       inkscape:transform-center-x="0.43092646"
       inkscape:transform-center-y="0.56512143"
       transform="matrix(0.40934677,0.15968997,-0.22275308,0.52056326,107.78059,22.659055)" />
  </g>
</svg>
