<?xml version="1.0" encoding="UTF-8" standalone="no"?>
<!-- Created with Inkscape (http://www.inkscape.org/) -->

<svg
   xmlns:dc="http://purl.org/dc/elements/1.1/"
   xmlns:cc="http://creativecommons.org/ns#"
   xmlns:rdf="http://www.w3.org/1999/02/22-rdf-syntax-ns#"
   xmlns:svg="http://www.w3.org/2000/svg"
   xmlns="http://www.w3.org/2000/svg"
   xmlns:sodipodi="http://sodipodi.sourceforge.net/DTD/sodipodi-0.dtd"
   xmlns:inkscape="http://www.inkscape.org/namespaces/inkscape"
   width="210mm"
   height="33mm"
   viewBox="0 0 210 33"
   version="1.1"
   id="svg8"
   inkscape:version="0.92.5 (2060ec1f9f, 2020-04-08)"
   sodipodi:docname="PT_Logo_Header.svg">
  <defs
     id="defs2" />
  <sodipodi:namedview
     id="base"
     pagecolor="#ffffff"
     bordercolor="#666666"
     borderopacity="1.0"
     inkscape:pageopacity="0.0"
     inkscape:pageshadow="2"
     inkscape:zoom="1.979899"
     inkscape:cx="397.91037"
     inkscape:cy="70.34419"
     inkscape:document-units="mm"
     inkscape:current-layer="layer1"
     showgrid="false"
     inkscape:snap-bbox="false"
     inkscape:snap-center="false"
     inkscape:snap-grids="true"
     inkscape:snap-page="false"
     inkscape:window-width="1848"
     inkscape:window-height="1016"
     inkscape:window-x="72"
     inkscape:window-y="27"
     inkscape:window-maximized="1" />
  <metadata
     id="metadata5">
    <rdf:RDF>
      <cc:Work
         rdf:about="">
        <dc:format>image/svg+xml</dc:format>
        <dc:type
           rdf:resource="http://purl.org/dc/dcmitype/StillImage" />
        <dc:title />
      </cc:Work>
    </rdf:RDF>
  </metadata>
  <g
     inkscape:label="Layer 1"
     inkscape:groupmode="layer"
     id="layer1"
     transform="translate(0,-264)">
    <path
       sodipodi:type="star"
       style="fill:#87decd;fill-opacity:1;stroke-width:0.26458332"
       id="path203"
       sodipodi:sides="3"
       sodipodi:cx="99.424263"
       sodipodi:cy="55.121075"
       sodipodi:r1="74.057289"
       sodipodi:r2="46.725605"
       sodipodi:arg1="1.5960617"
       sodipodi:arg2="2.7041055"
       inkscape:flatsided="false"
       inkscape:rounded="0.14"
       inkscape:randomized="3.469447e-17"
       d="M 97.553377,129.15473 C 88.11572,128.33959 61.627191,83.237647 57.099316,74.91706 52.947508,67.287546 31.270482,23.604712 36.244681,16.484013 41.669437,8.7183301 93.973133,8.3295637 103.44291,8.5686028 c 8.68326,0.2191855 57.35221,3.2877482 61.03182,11.1558802 4.0129,8.580818 -21.80226,54.07153 -26.74417,62.153078 -4.53145,7.410329 -31.52338,48.024599 -40.177183,47.277169 z"
       inkscape:transform-center-x="-0.14512439"
       inkscape:transform-center-y="4.8608873"
       transform="matrix(0.25623279,-0.00466095,0.00245631,0.26511837,-6.8340229,262.91763)" />
    <path
       inkscape:connector-curvature="0"
       style="fill:#000000;fill-opacity:1;stroke:none;stroke-width:0.02019187;stroke-miterlimit:4;stroke-dasharray:none;stroke-opacity:1"
       d="m 17.424545,267.25727 c -0.675255,1.6e-4 -1.260808,0.12036 -1.628386,0.27651 0.236869,0.22281 0.636775,0.42629 0.433043,0.70138 -1.868521,-0.92738 -2.880834,-0.48301 -3.819571,0.0793 0.300323,0.0103 0.525783,6.8e-4 1.02156,0.0632 -0.668216,0.15766 -1.272152,0.38397 -1.67924,0.82055 0.496618,-0.0589 0.790618,-0.0407 0.921934,0.23483 -1.344667,0.57798 -1.772762,1.31255 -1.921272,3.08221 0.847522,-0.46653 1.414496,-0.68491 2.000089,-0.70382 -2.098079,1.83641 -0.84751,4.4504 -0.45618,4.52045 0.201865,-0.0236 -0.0054,0.92395 0.17445,1.0673 l 0.130087,2.26014 -0.07024,0.007 0.03154,0.37069 a 1.7986103,1.0153045 85.352013 0 0 -0.16546,-0.01 1.7986103,1.0153045 85.352013 0 0 -0.854519,1.89213 1.7986103,1.0153045 85.352013 0 0 1.16638,1.69143 1.7986103,1.0153045 85.352013 0 0 0.146567,-0.0357 l 0.0193,0.27895 0.14016,2.24118 0.01498,0.008 c -0.02599,0.52534 0.113655,1.05061 0.556222,1.57595 1.051766,1.12675 2.016424,1.6021 3.021485,2.37965 0.02205,0.4833 4.28195,0.67199 4.335257,0.0355 -0.21338,0.16009 3.473439,-2.58222 3.664348,-3.93228 l 0.03487,-0.4767 -0.824472,-0.23743 -0.847527,-0.24422 0.486144,-0.4991 -0.668334,-0.71631 -0.685811,-0.73509 0.942325,-0.29396 0.859845,-0.26821 0.06941,-0.33345 0.476905,-2.29092 -0.685478,-0.48844 -1.491307,-1.06269 0.329921,-0.15314 -0.893968,-0.9789 -0.92052,-1.008 1.038789,-0.69878 0.975118,-0.65593 -0.779695,-0.56023 0.303039,-0.30687 -1.358472,-1.268 -1.436292,-1.34062 1.556308,-1.01496 0.831964,-0.54262 c -0.03382,-0.0327 -0.0669,-0.0642 -0.101445,-0.098 -0.988492,-2.05331 -2.908283,-2.63311 -4.393851,-2.63259 z m 5.164059,3.34824 -0.06451,1.26555 -0.11186,2.19607 1.564798,-1.58459 0.587685,-0.59512 c -4.83e-4,2.6e-4 -8.05e-4,5e-4 -0.0013,7.6e-4 -0.640544,-0.26639 -1.225698,-0.62969 -1.974764,-1.28267 z m 0.272327,4.45729 -0.112444,1.62233 -0.115355,1.66401 1.299463,-0.60326 1.617484,-0.75078 -1.524849,-1.09564 z m 2.726351,1.95906 -0.02738,0.29974 c 0.02024,-0.0838 0.02932,-0.18537 0.03504,-0.29429 z m -2.069004,7.52264 -0.03246,0.13 0.0068,-0.007 z"
       id="path915" />
    <path
       sodipodi:type="star"
       style="fill:#000000;fill-opacity:1;stroke-width:0.26458332"
       id="path507-1-6"
       sodipodi:sides="3"
       sodipodi:cx="143.34792"
       sodipodi:cy="70.877625"
       sodipodi:r1="13.094843"
       sodipodi:r2="6.5474215"
       sodipodi:arg1="1.1391013"
       sodipodi:arg2="2.1862989"
       inkscape:flatsided="false"
       inkscape:rounded="0"
       inkscape:randomized="0"
       d="m 148.82694,82.771118 -9.2593,-6.547633 -9.2593,-6.547632 10.30006,-4.744975 10.30007,-4.744975 -1.04076,11.292608 z"
       inkscape:transform-center-x="0.44179145"
       inkscape:transform-center-y="0.027796968"
       transform="matrix(0.16864833,-0.01880315,0.03661655,0.25028257,-1.7555471,259.33833)" />
    <path
       sodipodi:type="star"
       style="fill:#000000;fill-opacity:1;stroke-width:0.26458332"
       id="path507-1-5"
       sodipodi:sides="3"
       sodipodi:cx="150.00502"
       sodipodi:cy="95.41243"
       sodipodi:r1="13.094843"
       sodipodi:r2="6.5474215"
       sodipodi:arg1="1.1391013"
       sodipodi:arg2="2.1862989"
       inkscape:flatsided="false"
       inkscape:rounded="0"
       inkscape:randomized="0"
       d="m 155.48405,107.30592 -9.25931,-6.54763 -9.2593,-6.547632 10.30007,-4.744975 10.30007,-4.744975 -1.04077,11.292608 z"
       inkscape:transform-center-x="0.32105522"
       inkscape:transform-center-y="0.091917246"
       transform="matrix(0.11719412,0,0,0.1529701,3.8671663,257.13041)" />
    <path
       sodipodi:type="star"
       style="fill:#000000;fill-opacity:1;stroke-width:0.26458332"
       id="path507-1-56"
       sodipodi:sides="3"
       sodipodi:cx="145.19417"
       sodipodi:cy="123.20846"
       sodipodi:r1="13.094843"
       sodipodi:r2="6.5474215"
       sodipodi:arg1="1.1391013"
       sodipodi:arg2="2.1862989"
       inkscape:flatsided="false"
       inkscape:rounded="0"
       inkscape:randomized="0"
       d="m 150.67319,135.10195 -9.2593,-6.54763 -9.2593,-6.54763 10.30007,-4.74498 10.30006,-4.74497 -1.04076,11.2926 z"
       inkscape:transform-center-x="0.49743933"
       inkscape:transform-center-y="0.089171136"
       transform="matrix(0.18157943,0,0,0.14840029,-1.5329087,260.4727)" />
    <path
       sodipodi:type="star"
       style="fill:#000000;fill-opacity:1;stroke-width:0.26458332"
       id="path507-1-2"
       sodipodi:sides="3"
       sodipodi:cx="131.02888"
       sodipodi:cy="118.3976"
       sodipodi:r1="13.094843"
       sodipodi:r2="6.5474215"
       sodipodi:arg1="1.1391013"
       sodipodi:arg2="2.1862989"
       inkscape:flatsided="false"
       inkscape:rounded="0"
       inkscape:randomized="0"
       d="m 136.50791,130.29109 -9.2593,-6.54763 -9.25931,-6.54763 10.30007,-4.74498 10.30007,-4.74497 -1.04076,11.2926 z"
       inkscape:transform-center-x="-0.90894383"
       inkscape:transform-center-y="2.0243229"
       transform="matrix(0.08563059,-0.20101645,0.07717096,0.05374566,4.4623262,302.00672)" />
    <path
       sodipodi:type="star"
       style="fill:#000000;fill-opacity:1;stroke-width:0.26458332"
       id="path507-1-2-1"
       sodipodi:sides="3"
       sodipodi:cx="131.02888"
       sodipodi:cy="118.3976"
       sodipodi:r1="13.094843"
       sodipodi:r2="6.5474215"
       sodipodi:arg1="1.1391013"
       sodipodi:arg2="2.1862989"
       inkscape:flatsided="false"
       inkscape:rounded="0"
       inkscape:randomized="0"
       d="m 136.50791,130.29109 -9.2593,-6.54763 -9.25931,-6.54763 10.30007,-4.74498 10.30007,-4.74497 -1.04076,11.2926 z"
       inkscape:transform-center-x="0.88681569"
       inkscape:transform-center-y="-1.2217842"
       transform="matrix(-0.08284229,0.15936975,-0.07501093,-0.00384259,44.287375,263.92666)" />
    <path
       sodipodi:type="star"
       style="fill:#000000;fill-opacity:1;stroke-width:0.26458332"
       id="path509-6-7"
       sodipodi:sides="3"
       sodipodi:cx="136.30746"
       sodipodi:cy="139.8455"
       sodipodi:r1="12.209427"
       sodipodi:r2="6.1047134"
       sodipodi:arg1="0.92038682"
       sodipodi:arg2="1.9675844"
       inkscape:flatsided="false"
       inkscape:rounded="0"
       inkscape:randomized="0"
       d="m 143.70042,149.56221 -9.75217,-4.08629 -9.75217,-4.08628 8.41491,-6.40249 8.4149,-6.40249 1.33727,10.48877 z"
       inkscape:transform-center-x="0.24524409"
       inkscape:transform-center-y="0.075557799"
       transform="matrix(0.09603512,0.02724375,-0.02258932,0.11582272,12.055813,256.61609)" />
    <path
       sodipodi:type="star"
       style="fill:#000000;fill-opacity:1;stroke-width:0.26458332"
       id="path509-6-3"
       sodipodi:sides="3"
       sodipodi:cx="136.30746"
       sodipodi:cy="139.8455"
       sodipodi:r1="12.209427"
       sodipodi:r2="6.1047134"
       sodipodi:arg1="0.92038682"
       sodipodi:arg2="1.9675844"
       inkscape:flatsided="false"
       inkscape:rounded="0"
       inkscape:randomized="0"
       d="m 143.70042,149.56221 -9.75217,-4.08629 -9.75217,-4.08628 8.41491,-6.40249 8.4149,-6.40249 1.33727,10.48877 z"
       inkscape:transform-center-x="0.069404837"
       inkscape:transform-center-y="0.091715536"
       transform="matrix(0.065929,0.02591643,-0.0358764,0.08448335,19.299066,268.1923)" />
    <text
       xml:space="preserve"
       style="font-style:normal;font-variant:normal;font-weight:normal;font-stretch:normal;font-size:7.93908405px;line-height:1.25;font-family:Chilanka;-inkscape-font-specification:Chilanka;letter-spacing:0px;word-spacing:0px;fill:#87decd;fill-opacity:1;stroke:#ffffff;stroke-width:0.19847709"
       id="text3965"
       x="12.519678"
       y="283.94202"
       transform="scale(0.99619365,1.0038209)"><tspan
         id="tspan3963"
         style="font-style:normal;font-variant:normal;font-weight:normal;font-stretch:normal;font-family:serif;-inkscape-font-specification:serif;fill:#87decd;fill-opacity:1;stroke:#ffffff;stroke-width:0.19847709">ppt</tspan></text>
    <text
       xml:space="preserve"
       style="font-style:normal;font-weight:normal;font-size:10.58333302px;line-height:1.25;font-family:sans-serif;letter-spacing:0px;word-spacing:0px;fill:#000000;fill-opacity:1;stroke:none;stroke-width:0.26458332"
       x="344.24316"
       y="128.08566"
       id="text26"><tspan
         sodipodi:role="line"
         id="tspan24"
         x="344.24316"
         y="137.44943"
         style="stroke-width:0.26458332" /></text>
    <path
       style="fill:#87decd;fill-opacity:1;fill-rule:evenodd;stroke-width:0.26203394"
       d="m 35.99574,271.59576 c -1.549069,4.49998 -5.212461,11.32925 -6.115907,12.89895 -0.695563,1.20851 -3.491372,5.70897 -6.074563,9.01702 h 180.37606 c 2.64163,0 4.76819,-2.12655 4.76819,-4.76818 v -12.3946 c 0,-2.5416 -1.97022,-4.60046 -4.47208,-4.75319 z"
       id="rect49"
       inkscape:connector-curvature="0" />
    <text
       xml:space="preserve"
       style="font-style:normal;font-weight:normal;font-size:16.53902435px;line-height:1.25;font-family:sans-serif;letter-spacing:0px;word-spacing:0px;fill:#87decd;fill-opacity:1;stroke:#ffffff;stroke-width:0.41347557"
       x="44.755974"
       y="247.35072"
       id="text30"
       transform="matrix(0.85751096,0.00342136,-0.00465279,1.1661473,0,0)"><tspan
         sodipodi:role="line"
         id="tspan28"
         x="44.755974"
         y="247.35072"
         style="fill:#87decd;fill-opacity:1;stroke:#ffffff;stroke-width:0.41347557">Project Pic Triangulation</tspan></text>
  </g>
</svg>
